# xmcd
#
# Track frame offsets: 
#        150
#        16865
#        35422
#        67653
#        93404
#        109379
#        124768
#        146776
#        167676
#        183240
#
# Disc length: 2948 seconds
#
# Revision: 2
# Processed by: cddbd v1.5.2PL0 Copyright (c) Steve Scherf et al.
# Submitted via: ExactAudioCopy v0.99pb1
#
DISCID=7f0b820a
DTITLE=The Perpetrators - The Gas and the Clutch
DYEAR=2005
DGENRE=
TTITLE0=55th Street Boogie
TTITLE1=She Lets me Know
TTITLE2=Roller Coaster Love
TTITLE3=One Year Ago
TTITLE4=Sent Me Down the Road
TTITLE5=Scratch the Surfish
TTITLE6=Lovin' In My Baby's Eyes
TTITLE7=Are You Ready For the Country?
TTITLE8=You Can't Sit Down
TTITLE9=The Woman I Love
EXTD=
EXTT0=
EXTT1=
EXTT2=
EXTT3=
EXTT4=
EXTT5=
EXTT6=
EXTT7=
EXTT8=
EXTT9=
PLAYORDER=
